<svg version="1.1" id="Capa_1" xmlns="http://www.w3.org/2000/svg" x="0" y="0" width="333.086" height="333.087" xml:space="preserve"><path d="M284.662 333.087c-3.614 0-7.136-1.57-9.559-4.441l-108.56-128.714-108.56 128.714a12.504 12.504 0 01-13.845 3.683 12.502 12.502 0 01-8.21-11.741V12.5c0-6.903 5.597-12.5 12.5-12.5h236.23c6.902 0 12.5 5.597 12.5 12.5v308.086a12.502 12.502 0 01-12.496 12.501zM166.543 168.043a12.5 12.5 0 019.555 4.441l96.061 113.893V25H60.928v261.377l96.06-113.893a12.5 12.5 0 019.555-4.441z"/></svg>