<svg id="Layer_5" height="512" viewBox="0 0 64 64" width="512" xmlns="http://www.w3.org/2000/svg" fill="#68c7b8"><path d="M41 51h2v8h-2zm4 0h2v8h-2z"/><path d="M55 35.99V15h-2V4.819l-2 .333V3h-2v2.486l-2 .333V1h-2v5.153l-2 .333V3h-2v3.819l-2 .333V15h-2v10h-8V11h-4V5h-2V1H13v4h-2v6H7v18.685A7.008 7.008 0 003.08 35H1v28h62V34.847zM41 8.847L51 7.18V15H41zM39 17h14v19.276l-6 .857v5.201l-3-4-3 4V25h-2zm0 12H25v-2h14zm0 20h10v12H39zm1-2l4-5.333L48 47zM15 3h6v2h-6zm-2 4h10v4H13zm-4 6h18v12h-4v4.685A6.955 6.955 0 0020 29H10c-.34 0-.672.033-1 .08zm1 18h10a5.01 5.01 0 014.899 4H5.101A5.01 5.01 0 0110 31zm17 6v2H3v-2zm-4 18h-4v-4h4zm-6 0h-4v-4h4zm0 2v4h-4v-4zm2 0h4v4h-4zm4-8h-4v-4h4zm-6 0h-4v-4h4zm-6 0H7v-4h4zm-4 2h4v4H7zm0 6h4v4H7zm18 4V43H5v18H3V41h24v20zm1.92-26A6.974 6.974 0 0025 31.111V31h14v14l-2 2.667V61h-8V35zM61 61H51V47.667L49 45v-6.133l12-1.714z"/><path d="M31 33h2v2h-2zm0 24h2v2h-2zm0-20h2v2h-2zm0 16h2v2h-2zm0-8h2v2h-2zm0-4h2v2h-2zm0 8h2v2h-2zm4-8h2v2h-2zm0-4h2v2h-2zm0-4h2v2h-2zm22 24h2v2h-2zm0-8h2v2h-2zm0 4h2v2h-2zm0-8h2v2h-2zm0-4h2v2h-2zm-4 12h2v2h-2zm0-12h2v2h-2zm0 8h2v2h-2zm0 8h2v2h-2zm0-12h2v2h-2zM23 15h2v2h-2zm-4 0h2v2h-2zm-8 0h2v2h-2zm4 0h2v2h-2zm0 4h2v2h-2zm8 0h2v2h-2zm-12 0h2v2h-2zm8 0h2v2h-2zm-8 4h2v2h-2zm4 0h2v2h-2zm4 0h2v2h-2zm30-4h2v2h-2zm-4 0h2v2h-2zm-4 0h2v2h-2zm8 4h2v2h-2zm-8 0h2v2h-2zm4 0h2v2h-2zm0 12h2v2h-2zm0-4h2v2h-2zm0-4h2v2h-2zm4 4h2v2h-2zm0-4h2v2h-2z"/></svg>