<svg height="512" viewBox="0 0 64 64" width="512" xmlns="http://www.w3.org/2000/svg" fill="#68c7b8"><path d="M42 58v2H12v-9h-2v9H4v-8.65a8.959 8.959 0 016.32-8.59l4.24-1.32C15.85 44.13 19.21 46 23 46s7.15-1.87 8.44-4.56l4.24 1.32.05.02.32-1.12.32-.77-.09-.03-8.28-2.6v-1.47A11.043 11.043 0 0033.81 29H35a5 5 0 002-9.58V15A13.012 13.012 0 0024 2h-2A13.012 13.012 0 009 15v4.42A5 5 0 0011 29h1.19A11.043 11.043 0 0018 36.79v1.47l-8.28 2.59A10.945 10.945 0 002 51.35V61a1 1 0 001 1h40a1 1 0 001-1v-3zM32 18.74c-1.31-.63-2.43-2.44-2.82-4.79a1 1 0 00-1.34-.77 15 15 0 01-9.68 0 1.052 1.052 0 00-.85.07 1.012 1.012 0 00-.49.7c-.39 2.35-1.51 4.16-2.82 4.79V17a9 9 0 0118 0zM38 24a3.009 3.009 0 01-3 3h-1v-6h1a3.009 3.009 0 013 3zm-26 3h-1a3 3 0 010-6h1zm0-10v2h-1v-4A11.007 11.007 0 0122 4h2a11.007 11.007 0 0111 11v4h-1v-2a11 11 0 00-22 0zm2 10v-6.13c2.05-.52 3.78-2.58 4.55-5.46a17.218 17.218 0 008.9 0c.77 2.88 2.5 4.94 4.55 5.46V27a9 9 0 01-18 0zm12 10.57V39c0 .25-1.06 1-3 1s-3-.75-3-1v-1.43a10.68 10.68 0 006 0zm-7.58 2.66C19.17 41.29 20.89 42 23 42s3.83-.71 4.58-1.77l1.93.6C28.46 42.71 25.91 44 23 44s-5.46-1.29-6.51-3.17z"/><path d="M17 22h2v2h-2zm10 0h2v2h-2zm-.228 7.333l-1.886-.666a2 2 0 01-3.772 0l-1.886.666a4 4 0 007.544 0zM53 42H41a8.011 8.011 0 00-8 8v5a3.009 3.009 0 003 3h3a1.076 1.076 0 00.62-.21l4.52-3.58a1.076 1.076 0 01.62-.21h4.48a1.02 1.02 0 01.62.22l4.52 3.57A1.076 1.076 0 0055 58h3a3.009 3.009 0 003-3v-5a8.011 8.011 0 00-8-8zm6 13a1 1 0 01-1 1h-2.65l-4.25-3.35a3.006 3.006 0 00-1.86-.65h-4.48a3.006 3.006 0 00-1.86.65L38.65 56H36a1 1 0 01-1-1v-5a6 6 0 016-6h12a6 6 0 016 6z"/><path d="M41 46h-2v2h-2v2h2v2h2v-2h2v-2h-2zm12 0h2v2h-2zm2 2h2v2h-2zm-2 2h2v2h-2zm-2-2h2v2h-2zm-7-2h2v2h-2zm4 0h2v2h-2z"/></svg>