<svg height="512pt" viewBox="-8 0 512 512" width="512pt" xmlns="http://www.w3.org/2000/svg" fill="#68c7b8"><path d="M445.484 239.262H50.09C22.469 239.262 0 261.73 0 289.352v172.562C0 489.531 22.469 512 50.09 512h395.394c27.621 0 50.09-22.469 50.09-50.086V289.352c0-27.622-22.469-50.09-50.09-50.09zm20.09 222.652c0 11.074-9.012 20.086-20.09 20.086H50.09C39.012 482 30 472.988 30 461.914V289.352c0-11.079 9.012-20.09 20.09-20.09h395.394c11.079 0 20.09 9.011 20.09 20.09zM247.828 160.64c11.918 0 23.836-4.527 32.91-13.585 8.801-8.782 13.645-20.461 13.645-32.887s-4.844-24.106-13.645-32.887c-18.148-18.113-47.675-18.113-65.824 0-8.8 8.781-13.644 20.461-13.644 32.887s4.843 24.105 13.644 32.887c9.074 9.058 20.992 13.586 32.914 13.586zm-11.723-58.128c3.235-3.227 7.477-4.836 11.723-4.836 4.242 0 8.484 1.613 11.715 4.836a16.357 16.357 0 014.84 11.656c0 4.402-1.719 8.539-4.836 11.656-6.465 6.45-16.977 6.446-23.442 0a16.36 16.36 0 01-4.835-11.656c0-4.402 1.718-8.54 4.835-11.656zm66.532 77.25a14.948 14.948 0 0010.617 4.406c3.836 0 7.668-1.461 10.598-4.383 17.558-17.527 27.23-40.828 27.23-65.617 0-24.79-9.672-48.094-27.23-65.617-5.864-5.852-15.364-5.844-21.215.02-5.852 5.863-5.84 15.363.023 21.214 11.88 11.856 18.422 27.617 18.422 44.383 0 16.762-6.543 32.527-18.422 44.383-5.863 5.851-5.875 15.347-.023 21.21zm-130.914.023a14.957 14.957 0 0010.597 4.383c3.844 0 7.688-1.469 10.618-4.406 5.851-5.864 5.84-15.36-.024-21.211-11.879-11.86-18.422-27.621-18.422-44.387 0-16.762 6.543-32.523 18.422-44.383 5.863-5.851 5.875-15.347.024-21.21-5.852-5.868-15.352-5.876-21.215-.024-17.559 17.527-27.227 40.828-27.23 65.617 0 24.79 9.671 48.094 27.23 65.621zm0 0"/><path d="M130.39 421.977H90.126V314.285c0-8.285-6.715-15-15-15s-15 6.715-15 15v122.692c0 8.285 6.715 15 15 15h55.266c8.28 0 15-6.715 15-15 0-8.282-6.72-15-15-15zm46.473-122.692c-8.285 0-15 6.715-15 15v122.692c0 8.285 6.715 15 15 15 8.282 0 15-6.715 15-15V314.285c0-8.285-6.718-15-15-15zm131.18.641c-7.926-2.395-16.3 2.094-18.695 10.023l-22.68 75.13-22.684-75.13c-2.394-7.933-10.765-12.418-18.695-10.023-7.93 2.394-12.418 10.765-10.023 18.695l37.043 122.691.011.036c4.082 13.062 24.192 13.855 28.696 0l.011-.036 37.043-122.69c2.395-7.935-2.097-16.302-10.027-18.696zm112.407 29.359c8.284 0 15-6.715 15-15s-6.716-15-15-15h-67.67c-8.285 0-15 6.715-15 15v122.692c0 8.285 6.715 15 15 15h65.649c8.285 0 15-6.715 15-15 0-8.282-6.715-15-15-15H367.78v-39.07h42.567c8.285 0 15-6.716 15-15s-6.715-15-15-15H367.78v-23.622zm-47.11-215.117c0 33.445-13.05 64.894-36.75 88.547-5.863 5.851-5.875 15.351-.024 21.215a14.967 14.967 0 0010.618 4.402 14.95 14.95 0 0010.597-4.383c29.38-29.32 45.559-68.308 45.559-109.781 0-41.469-16.18-80.461-45.559-109.781-5.863-5.852-15.36-5.844-21.215.02-5.851 5.863-5.84 15.363.024 21.214 23.7 23.652 36.75 55.098 36.75 88.547zM148.39 228.332a14.96 14.96 0 0010.618-4.402c5.851-5.864 5.844-15.364-.024-21.215-23.699-23.653-36.75-55.102-36.75-88.55 0-33.446 13.051-64.895 36.75-88.548 5.864-5.851 5.875-15.351.024-21.21-5.856-5.868-15.352-5.876-21.215-.024-29.379 29.324-45.559 68.312-45.559 109.781 0 41.473 16.18 80.461 45.559 109.785a14.957 14.957 0 0010.598 4.383zm0 0"/></svg>