<svg height="512" width="512" xmlns="http://www.w3.org/2000/svg" fill="#68c7b8"><path d="M72 240a8 8 0 000-16H40a8 8 0 00-8 8v24a8 8 0 008 8h24v8H40a8 8 0 000 16h32a8 8 0 008-8v-24a8 8 0 00-8-8H48v-8zm168 0a8 8 0 000-16h-32a8 8 0 00-8 8v24a8 8 0 008 8h24v8h-24a8 8 0 000 16h32a8 8 0 008-8v-24a8 8 0 00-8-8h-24v-8zm-112-16a8 8 0 00-8 8v40h-16v-40a8 8 0 00-16 0v48a8 8 0 008 8h32a8 8 0 008-8v-48a8 8 0 00-8-8zm160 16a8 8 0 000-16h-24a8 8 0 00-8 8v48a8 8 0 008 8h24a8 8 0 000-16h-16v-32zm184 0a8 8 0 000-16h-32a8 8 0 00-8 8v48a8 8 0 008 8h32a8 8 0 000-16h-24v-8h8a8 8 0 000-16h-8v-8zm-112-16a8 8 0 00-8 8v48a8 8 0 0016 0v-48a8 8 0 00-8-8z"/><path d="M464 152H48a40.04 40.04 0 00-40 40v128a40.04 40.04 0 0040 40h416a40.04 40.04 0 0040-40V192a40.04 40.04 0 00-40-40zm24 168a24.032 24.032 0 01-24 24H48a24.032 24.032 0 01-24-24V192a24.032 24.032 0 0124-24h416a24.032 24.032 0 0124 24z"/><path d="M416 248v-16a8 8 0 00-8-8h-24a8 8 0 00-8 8v48a8 8 0 008 8h32a8 8 0 008-8v-24a8 8 0 00-8-8zm-24-8h8v8h-8zm16 32h-16v-8h16zm-64-16v-24a8 8 0 00-8-8h-24a8 8 0 00-8 8v48a8 8 0 0016 0v-4.69l10.34 10.35a8 8 0 0011.32-11.32L331.31 264H336a8 8 0 008-8zm-16-8h-8v-8h8zm-144 0v-16a8 8 0 00-8-8h-24a8 8 0 00-8 8v48a8 8 0 008 8h32a8 8 0 008-8v-24a8 8 0 00-8-8zm-24-8h8v8h-8zm16 32h-16v-8h16zM48 192h56a8 8 0 000-16H48a8 8 0 000 16zm88-16h-8a8 8 0 000 16h8a8 8 0 000-16z"/></svg>